<svg width="331" height="194" viewBox="0 0 331 194" fill="none" xmlns="http://www.w3.org/2000/svg">
<path d="M393.497 165.221C393.497 165.221 360.801 76.7893 289.363 53.5775C217.924 30.3657 190.93 82.5795 131.396 57.4528C71.8629 32.3262 33.0913 -29.6902 33.0913 -29.6902" stroke="#FF8C00" stroke-opacity="0.6" stroke-linecap="round"/>
<path d="M391.953 169.976C391.953 169.976 359.257 81.5445 287.818 58.3327C216.379 35.121 189.385 87.3347 129.851 62.2081C70.318 37.0815 31.5464 -24.9349 31.5464 -24.9349" stroke="#FF8C00" stroke-opacity="0.6" stroke-linecap="round"/>
<path d="M389.454 174.422C389.454 174.422 356.758 85.9901 285.319 62.7783C213.881 39.5665 186.886 91.7803 127.353 66.6536C67.8195 41.527 29.0479 -20.4894 29.0479 -20.4894" stroke="#FF8C00" stroke-opacity="0.6" stroke-linecap="round"/>
<path d="M387.909 179.177C387.909 179.177 355.213 90.7453 283.774 67.5336C212.336 44.3218 185.341 96.5355 125.808 71.4089C66.2741 46.2823 27.5025 -15.7341 27.5025 -15.7341" stroke="#FF8C00" stroke-opacity="0.6" stroke-linecap="round"/>
<path d="M386.364 183.932C386.364 183.932 353.668 95.5006 282.229 72.2888C210.791 49.077 183.796 101.291 124.263 76.1641C64.7292 51.0375 25.9575 -10.9789 25.9575 -10.9789" stroke="#FF8C00" stroke-opacity="0.6" stroke-linecap="round"/>
<path d="M384.819 188.688C384.819 188.688 352.123 100.256 280.684 77.0442C209.246 53.8324 182.251 106.046 122.718 80.9195C63.1842 55.7929 24.4126 -6.22351 24.4126 -6.22351" stroke="#FF8C00" stroke-opacity="0.6" stroke-linecap="round"/>
<path d="M383.273 193.443C383.273 193.443 350.577 105.011 279.139 81.7994C207.7 58.5876 180.706 110.801 121.172 85.6748C61.6388 60.5481 22.8672 -1.46826 22.8672 -1.46826" stroke="#FF8C00" stroke-opacity="0.6" stroke-linecap="round"/>
</svg>
