<svg width="222" height="209" viewBox="0 0 222 209" fill="none" xmlns="http://www.w3.org/2000/svg">
<path fill-rule="evenodd" clip-rule="evenodd" d="M152.567 -31.8533C187.369 -38.4587 219.858 -66.4977 253.512 -55.4515C289.599 -43.6065 328.644 -11.8792 328.998 26.0568C329.37 65.9618 278.591 84.2921 255.118 116.587C241.25 135.667 237.537 160.222 220.006 176.012C200.957 193.169 178.195 210.042 152.567 208.95C127.239 207.87 111.813 181.851 89.1864 170.433C59.9104 155.66 9.67955 164.083 1.03341 132.482C-7.77748 100.28 42.2368 82.2724 56.8499 52.2486C68.2908 28.7423 56.4679 -4.51785 76.1161 -21.7817C95.899 -39.164 126.681 -26.9402 152.567 -31.8533Z" fill="#BB8CFC" fill-opacity="0.2"/>
</svg>
