<svg width="402" height="106" viewBox="0 0 402 106" fill="none" xmlns="http://www.w3.org/2000/svg">
<path d="M403 75C403 75 344.577 1 269.462 1C194.347 1 184.809 59 120.425 53.5C56.0406 48 0.00249195 1 0.00249195 1" stroke="#FF8C00" stroke-opacity="0.4" stroke-linecap="round"/>
<path d="M403 80C403 80 344.577 6 269.462 6C194.347 6 184.809 64 120.425 58.5C56.0406 53 0.00249195 6 0.00249195 6" stroke="#FF8C00" stroke-opacity="0.4" stroke-linecap="round"/>
<path d="M401.998 85C401.998 85 343.575 11 268.46 11C193.345 11 183.807 69 119.422 63.5C55.0382 58 -0.999949 11 -0.999949 11" stroke="#FF8C00" stroke-opacity="0.4" stroke-linecap="round"/>
<path d="M401.998 90C401.998 90 343.575 16 268.46 16C193.345 16 183.807 74 119.422 68.5C55.0382 63 -0.999949 16 -0.999949 16" stroke="#FF8C00" stroke-opacity="0.4" stroke-linecap="round"/>
<path d="M401.998 95C401.998 95 343.575 21 268.46 21C193.345 21 183.807 79 119.422 73.5C55.0382 68 -0.999949 21 -0.999949 21" stroke="#FF8C00" stroke-opacity="0.4" stroke-linecap="round"/>
<path d="M401.998 100C401.998 100 343.575 26 268.46 26C193.345 26 183.807 84 119.422 78.5C55.0382 73 -0.999949 26 -0.999949 26" stroke="#FF8C00" stroke-opacity="0.4" stroke-linecap="round"/>
<path d="M401.998 105C401.998 105 343.575 31 268.46 31C193.345 31 183.807 89 119.422 83.5C55.0382 78 -0.999949 31 -0.999949 31" stroke="#FF8C00" stroke-opacity="0.4" stroke-linecap="round"/>
</svg>
