<svg width="402" height="128" viewBox="0 0 402 128" fill="none" xmlns="http://www.w3.org/2000/svg">
<path d="M402 36.4706L397.214 40.0831C392.429 43.6955 382.857 50.9205 373.286 58.6091C363.714 66.2977 354.143 74.45 344.571 80.6324C335 86.8148 325.429 91.0272 315.857 87.776C306.286 84.5247 296.714 73.8097 287.143 74.6305C277.571 75.4513 268 87.808 258.429 91.7214C248.857 95.6348 239.286 91.1051 229.714 94.3684C220.143 97.6318 210.571 108.688 201 104.021C191.429 99.354 181.857 78.9632 172.286 61.4266C162.714 43.8899 153.143 29.2073 143.571 21.1149C134 13.0226 124.429 11.5205 114.857 14.2512C105.286 16.9819 95.7143 23.9453 86.1429 31.4148C76.5714 38.8842 67 46.8597 57.4286 51.0554C47.8572 55.2511 38.2857 55.667 28.7143 64.1944C19.1429 72.7219 9.57144 89.361 4.78573 97.6805L2.84103e-06 106" stroke="#BB8CFC"/>
<path d="M0 127L3.04545 123.922C6.09091 120.844 12.1818 114.688 18.2727 108.229C24.3636 101.77 30.4545 95.0089 36.5455 89.5335C42.6364 84.0582 48.7273 79.8688 54.8182 80.5523C60.9091 81.2357 67 86.7919 73.0909 84.8168C79.1818 82.8417 85.2727 73.3354 91.3636 69.3413C97.4545 65.3472 103.545 66.8653 109.636 63.2956C115.727 59.7259 121.818 51.0685 127.909 52.6762C134 54.284 140.091 66.157 146.182 76.1668C152.273 86.1765 158.364 94.3229 164.455 98.1669C170.545 102.011 176.636 101.552 182.727 98.3303C188.818 95.1084 194.909 89.1231 201 82.8074C207.091 76.4917 213.182 69.8457 219.273 65.6673C225.364 61.489 231.455 59.7782 237.545 52.7719C243.636 45.7655 249.727 33.4634 255.818 38.5272C261.909 43.5909 268 66.0206 274.091 66.6818C280.182 67.343 286.273 46.2358 292.364 35.4042C298.455 24.5726 304.545 24.0166 310.636 32.3085C316.727 40.6003 322.818 57.7399 328.909 61.803C335 65.8661 341.091 56.8528 347.182 54.4766C353.273 52.1004 359.364 56.3615 365.455 55.0327C371.545 53.704 377.636 46.7855 383.727 36.8484C389.818 26.9113 395.909 13.9557 398.955 7.47783L402 1" stroke="#BB8CFC" stroke-opacity="0.7"/>
</svg>
