<svg width="402" height="279" viewBox="0 0 402 279" fill="none" xmlns="http://www.w3.org/2000/svg">
<path fill-rule="evenodd" clip-rule="evenodd" d="M402 230.063C402 230.063 394.11 219.938 379.555 218.719C365 217.5 312.555 262.688 268 233.375C223.445 204.063 178.555 164.126 134 164.126C89.445 164.126 44.555 191.063 22.445 235.031L0 279V0H22.445C44.555 0 89.445 0 134 0C178.555 0 223.445 0 268 0C312.555 0 357.445 0 379.555 0H402V230.063Z" fill="#BB8CFC" fill-opacity="0.1"/>
<path fill-rule="evenodd" clip-rule="evenodd" d="M0 187.916L13.4 173.973C26.8 160.03 53.6 132.144 80.4 150.734C107.2 169.325 134 209.394 160.8 218.689C187.6 227.985 214.4 206.507 241.2 192.564C268 178.621 294.8 172.212 321.6 195.45C348.4 218.689 372 187 382.6 200.703C393.2 214.405 402 237.462 402 237.462V3.05176e-05H388.6C375.2 3.05176e-05 348.4 3.05176e-05 321.6 3.05176e-05C294.8 3.05176e-05 268 3.05176e-05 241.2 3.05176e-05C214.4 3.05176e-05 187.6 3.05176e-05 160.8 3.05176e-05C134 3.05176e-05 107.2 3.05176e-05 80.4 3.05176e-05C53.6 3.05176e-05 26.8 3.05176e-05 13.4 3.05176e-05H0V187.916Z" fill="#BB8CFC" fill-opacity="0.25"/>
<path fill-rule="evenodd" clip-rule="evenodd" d="M402 47.2031L388.6 44.5807C375.2 41.9583 348.4 36.7135 321.6 55.0703C294.8 73.4271 268 91.3855 241.2 96.6303C214.4 101.875 187.6 94.4063 160.8 73.4271C134 52.4479 107.2 41.9583 80.4 36.7135C53.6 31.4687 26.8 31.4687 13.4 31.4687H0V-5.34058e-05H13.4C26.8 -5.34058e-05 53.6 -5.34058e-05 80.4 -5.34058e-05C107.2 -5.34058e-05 134 -5.34058e-05 160.8 -5.34058e-05C187.6 -5.34058e-05 214.4 -5.34058e-05 241.2 -5.34058e-05C268 -5.34058e-05 294.8 -5.34058e-05 321.6 -5.34058e-05C348.4 -5.34058e-05 375.2 -5.34058e-05 388.6 -5.34058e-05H402V47.2031Z" fill="#BB8CFC" fill-opacity="0.17"/>
</svg>
