<svg width="246" height="196" viewBox="0 0 246 196" fill="none" xmlns="http://www.w3.org/2000/svg">
<path fill-rule="evenodd" clip-rule="evenodd" d="M56.6162 18.9741C14.5858 1.48424 -44.3202 -13.0967 -76.628 18.9601C-110.164 52.2352 -77.4934 110.088 -82.5355 157.045C-86.1301 190.521 -100.887 220.017 -101.831 253.672C-103.268 304.89 -135.195 379.99 -89.4389 403.112C-40.1287 428.031 3.93401 350.4 56.6162 333.742C86.468 324.303 119.955 341.784 148.07 328.012C179.194 312.767 202.874 285.78 218.08 254.652C235.068 219.876 258.218 176.433 238.339 143.222C217.797 108.903 160.99 126.676 127.963 104.095C96.6283 82.671 91.6656 33.5589 56.6162 18.9741Z" fill="#BB8CFC" fill-opacity="0.22"/>
</svg>
